<?xml version="1.0" encoding="utf-8"?>
<!-- Generator: Adobe Illustrator 23.1.0, SVG Export Plug-In . SVG Version: 6.00 Build 0)  -->
<svg version="1.1" id="Layer_1" xmlns="http://www.w3.org/2000/svg" xmlns:xlink="http://www.w3.org/1999/xlink" x="0px" y="0px"
	 viewBox="0 0 192.88 86.95" style="enable-background:new 0 0 192.88 86.95;" xml:space="preserve">
<g>
	<path d="M20.05,0.28c1.94,0,3.75,0.48,5.45,1.42c1.7,0.95,3.18,2.24,4.43,3.86c1.25,1.62,2.24,3.52,2.98,5.7
		c0.73,2.18,1.1,4.52,1.1,7.03v9.74c0,2.51-0.37,4.87-1.1,7.08c-0.73,2.21-1.72,4.12-2.98,5.74c-1.25,1.62-2.73,2.91-4.43,3.86
		c-1.7,0.95-3.52,1.42-5.45,1.42h-6.09c-1.94,0-3.75-0.47-5.45-1.42c-1.7-0.95-3.18-2.24-4.43-3.86c-1.25-1.62-2.24-3.54-2.98-5.74
		C0.37,32.91,0,30.55,0,28.03v-9.74c0-2.51,0.37-4.86,1.1-7.03c0.73-2.17,1.72-4.07,2.98-5.7C5.32,3.94,6.8,2.65,8.5,1.7
		c1.7-0.95,3.52-1.42,5.45-1.42H20.05z M3.19,54.32h43.7V0h9.99v86.95H3.19V54.32z M24.23,20.5c0-2.33-0.56-4.23-1.66-5.7
		c-1.11-1.47-2.56-2.21-4.36-2.21H15.8c-1.79,0-3.25,0.74-4.36,2.21c-1.11,1.47-1.66,3.37-1.66,5.7v5.42c0,2.33,0.55,4.21,1.66,5.65
		c1.11,1.44,2.56,2.16,4.36,2.16h2.41c1.79,0,3.25-0.72,4.36-2.16c1.11-1.44,1.66-3.32,1.66-5.65V20.5z M13.18,75.74h33.72v-10.2
		H13.18V75.74z"/>
	<path d="M103.06,0.46V12.5l-9.78,9.83l9.78,9.93v14.61l-17-17.19L68.21,47.79V33.18L88.68,12.5H68.21V0.46H103.06z M112.55,54.23
		c1.75,0,3.39,0.43,4.92,1.29c1.53,0.86,2.87,2.02,4,3.49c1.13,1.47,2.03,3.2,2.69,5.19c0.66,1.99,0.99,4.12,0.99,6.39
		c0,2.27-0.33,4.4-0.99,6.39c-0.66,1.99-1.56,3.72-2.69,5.19c-1.13,1.47-2.47,2.63-4,3.49c-1.54,0.86-3.18,1.29-4.92,1.29h-28.9
		c-1.75,0-3.39-0.43-4.92-1.29c-1.54-0.86-2.87-2.02-4-3.49c-1.13-1.47-2.03-3.2-2.69-5.19c-0.66-1.99-0.99-4.12-0.99-6.39
		c0-2.27,0.33-4.4,0.99-6.39c0.66-1.99,1.56-3.72,2.69-5.19c1.13-1.47,2.47-2.63,4-3.49c1.53-0.86,3.18-1.29,4.92-1.29H112.55z
		 M83.65,66.64c-0.85,0-1.57,0.38-2.16,1.15c-0.59,0.77-0.89,1.7-0.89,2.8c0,1.1,0.29,2.04,0.89,2.8c0.59,0.77,1.31,1.15,2.16,1.15
		h28.9c0.85,0,1.57-0.38,2.16-1.15c0.59-0.77,0.88-1.7,0.88-2.8c0-1.1-0.29-2.04-0.88-2.8c-0.59-0.77-1.31-1.15-2.16-1.15H83.65z
		 M115.03,17V0h9.85v48.53h-9.85V29.5h-8.5V17H115.03z"/>
	<path d="M172.83,48.81h-36.62V0.46h36.62V48.81z M149.39,74.54h33.36V0h10.13v86.95h-53.69V58.82h10.2V74.54z M162.77,12.96h-16.65
		v23.35h16.65V12.96z"/>
</g>
</svg>
